<mxfile host="65bd71144e">
    <diagram id="TJqPXe8TccgJvso0ut_v" name="Page-1">
        <mxGraphModel dx="2019" dy="2058" grid="1" gridSize="10" guides="0" tooltips="1" connect="1" arrows="0" fold="1" page="1" pageScale="1" pageWidth="850" pageHeight="1100" math="0" shadow="0">
            <root>
                <mxCell id="0"/>
                <mxCell id="1" parent="0"/>
                <mxCell id="31" value="" style="group" parent="1" vertex="1" connectable="0">
                    <mxGeometry x="-150" y="460" width="410" height="220" as="geometry"/>
                </mxCell>
                <mxCell id="28" value="&lt;u&gt;Provider Id&lt;/u&gt;" style="ellipse;whiteSpace=wrap;html=1;fontFamily=Helvetica;fontSize=11;fontColor=default;labelBackgroundColor=default;container=0;" parent="31" vertex="1">
                    <mxGeometry x="50" y="-10" width="120" height="80" as="geometry"/>
                </mxCell>
                <mxCell id="29" style="edgeStyle=none;shape=connector;rounded=1;html=1;entryX=1;entryY=0.5;entryDx=0;entryDy=0;strokeColor=default;align=center;verticalAlign=middle;fontFamily=Helvetica;fontSize=11;fontColor=default;labelBackgroundColor=default;endArrow=none;endFill=0;" parent="31" source="3" target="28" edge="1">
                    <mxGeometry relative="1" as="geometry"/>
                </mxCell>
                <mxCell id="11" style="edgeStyle=none;html=1;entryX=0.5;entryY=0;entryDx=0;entryDy=0;endArrow=none;endFill=0;" parent="31" source="3" target="8" edge="1">
                    <mxGeometry relative="1" as="geometry"/>
                </mxCell>
                <mxCell id="12" style="edgeStyle=none;shape=connector;rounded=1;html=1;entryX=1;entryY=0;entryDx=0;entryDy=0;strokeColor=default;align=center;verticalAlign=middle;fontFamily=Helvetica;fontSize=11;fontColor=default;labelBackgroundColor=default;endArrow=none;endFill=0;" parent="31" source="3" target="6" edge="1">
                    <mxGeometry relative="1" as="geometry"/>
                </mxCell>
                <mxCell id="3" value="Provider" style="rounded=0;whiteSpace=wrap;html=1;container=0;" parent="31" vertex="1">
                    <mxGeometry x="250" width="120" height="60" as="geometry"/>
                </mxCell>
                <mxCell id="6" value="Business physical address&amp;nbsp;" style="ellipse;whiteSpace=wrap;html=1;container=0;" parent="31" vertex="1">
                    <mxGeometry x="100" y="70" width="120" height="80" as="geometry"/>
                </mxCell>
                <mxCell id="8" value="Phone Number" style="ellipse;whiteSpace=wrap;html=1;container=0;" parent="31" vertex="1">
                    <mxGeometry x="210" y="120" width="120" height="80" as="geometry"/>
                </mxCell>
                <mxCell id="58" style="edgeStyle=none;shape=connector;rounded=1;html=1;entryX=0.5;entryY=1;entryDx=0;entryDy=0;strokeColor=default;align=center;verticalAlign=middle;fontFamily=Helvetica;fontSize=11;fontColor=default;labelBackgroundColor=default;endArrow=none;endFill=0;" parent="1" source="143" target="24" edge="1">
                    <mxGeometry relative="1" as="geometry"/>
                </mxCell>
                <mxCell id="118" value="M" style="edgeLabel;html=1;align=center;verticalAlign=middle;resizable=0;points=[];fontFamily=Helvetica;fontSize=11;fontColor=default;labelBackgroundColor=default;" parent="58" vertex="1" connectable="0">
                    <mxGeometry x="0.0833" y="1" relative="1" as="geometry">
                        <mxPoint x="31" y="-15" as="offset"/>
                    </mxGeometry>
                </mxCell>
                <mxCell id="56" value="Provide" style="rhombus;whiteSpace=wrap;html=1;fontFamily=Helvetica;fontSize=11;fontColor=default;labelBackgroundColor=default;" parent="1" vertex="1">
                    <mxGeometry x="120" y="280" width="80" height="80" as="geometry"/>
                </mxCell>
                <mxCell id="57" style="edgeStyle=none;shape=connector;rounded=1;html=1;entryX=0.5;entryY=1;entryDx=0;entryDy=0;strokeColor=default;align=center;verticalAlign=middle;fontFamily=Helvetica;fontSize=11;fontColor=default;labelBackgroundColor=default;endArrow=none;endFill=0;" parent="1" source="3" target="56" edge="1">
                    <mxGeometry relative="1" as="geometry"/>
                </mxCell>
                <mxCell id="117" value="1" style="edgeLabel;html=1;align=center;verticalAlign=middle;resizable=0;points=[];fontFamily=Helvetica;fontSize=11;fontColor=default;labelBackgroundColor=default;" parent="57" vertex="1" connectable="0">
                    <mxGeometry x="0.0053" y="-1" relative="1" as="geometry">
                        <mxPoint x="19" y="41" as="offset"/>
                    </mxGeometry>
                </mxCell>
                <mxCell id="72" style="edgeStyle=none;shape=connector;rounded=1;html=1;strokeColor=default;align=center;verticalAlign=middle;fontFamily=Helvetica;fontSize=11;fontColor=default;labelBackgroundColor=default;endArrow=none;endFill=0;" parent="1" source="71" target="24" edge="1">
                    <mxGeometry relative="1" as="geometry"/>
                </mxCell>
                <mxCell id="74" value="M" style="edgeLabel;html=1;align=center;verticalAlign=middle;resizable=0;points=[];fontFamily=Helvetica;fontSize=11;fontColor=default;labelBackgroundColor=default;" parent="72" vertex="1" connectable="0">
                    <mxGeometry x="0.4601" relative="1" as="geometry">
                        <mxPoint x="-11" as="offset"/>
                    </mxGeometry>
                </mxCell>
                <mxCell id="75" style="edgeStyle=none;shape=connector;rounded=1;html=1;strokeColor=default;align=center;verticalAlign=middle;fontFamily=Helvetica;fontSize=11;fontColor=default;labelBackgroundColor=default;endArrow=none;endFill=0;" parent="1" source="71" target="4" edge="1">
                    <mxGeometry relative="1" as="geometry"/>
                </mxCell>
                <mxCell id="77" value="M" style="edgeLabel;html=1;align=center;verticalAlign=middle;resizable=0;points=[];fontFamily=Helvetica;fontSize=11;fontColor=default;labelBackgroundColor=default;container=0;" parent="75" vertex="1" connectable="0">
                    <mxGeometry x="0.3803" y="5" relative="1" as="geometry">
                        <mxPoint x="33" y="-5" as="offset"/>
                    </mxGeometry>
                </mxCell>
                <mxCell id="71" value="Consists of" style="rhombus;whiteSpace=wrap;html=1;fontFamily=Helvetica;fontSize=11;fontColor=default;labelBackgroundColor=default;" parent="1" vertex="1">
                    <mxGeometry x="370" y="90" width="80" height="80" as="geometry"/>
                </mxCell>
                <mxCell id="83" value="" style="group" parent="1" vertex="1" connectable="0">
                    <mxGeometry x="450" y="390" width="420" height="280" as="geometry"/>
                </mxCell>
                <mxCell id="16" value="&lt;u&gt;Guest Id&lt;/u&gt;" style="ellipse;whiteSpace=wrap;html=1;fontFamily=Helvetica;fontSize=11;fontColor=default;labelBackgroundColor=default;container=0;" parent="83" vertex="1">
                    <mxGeometry y="190" width="120" height="80" as="geometry"/>
                </mxCell>
                <mxCell id="21" style="edgeStyle=none;shape=connector;rounded=1;html=1;entryX=0.5;entryY=0;entryDx=0;entryDy=0;strokeColor=default;align=center;verticalAlign=middle;fontFamily=Helvetica;fontSize=11;fontColor=default;labelBackgroundColor=default;endArrow=none;endFill=0;" parent="83" source="5" target="16" edge="1">
                    <mxGeometry relative="1" as="geometry"/>
                </mxCell>
                <mxCell id="15" value="Phone Number" style="ellipse;whiteSpace=wrap;html=1;fontFamily=Helvetica;fontSize=11;fontColor=default;labelBackgroundColor=default;container=0;" parent="83" vertex="1">
                    <mxGeometry x="130" y="190" width="120" height="80" as="geometry"/>
                </mxCell>
                <mxCell id="22" style="edgeStyle=none;shape=connector;rounded=1;html=1;entryX=0.5;entryY=0;entryDx=0;entryDy=0;strokeColor=default;align=center;verticalAlign=middle;fontFamily=Helvetica;fontSize=11;fontColor=default;labelBackgroundColor=default;endArrow=none;endFill=0;" parent="83" source="5" target="15" edge="1">
                    <mxGeometry relative="1" as="geometry"/>
                </mxCell>
                <mxCell id="19" style="edgeStyle=none;shape=connector;rounded=1;html=1;entryX=0;entryY=0.5;entryDx=0;entryDy=0;strokeColor=default;align=center;verticalAlign=middle;fontFamily=Helvetica;fontSize=11;fontColor=default;labelBackgroundColor=default;endArrow=none;endFill=0;" parent="83" source="5" target="18" edge="1">
                    <mxGeometry relative="1" as="geometry"/>
                </mxCell>
                <mxCell id="20" style="edgeStyle=none;shape=connector;rounded=1;html=1;entryX=0;entryY=0;entryDx=0;entryDy=0;strokeColor=default;align=center;verticalAlign=middle;fontFamily=Helvetica;fontSize=11;fontColor=default;labelBackgroundColor=default;endArrow=none;endFill=0;" parent="83" source="5" target="17" edge="1">
                    <mxGeometry relative="1" as="geometry"/>
                </mxCell>
                <mxCell id="5" value="Guests" style="rounded=0;whiteSpace=wrap;html=1;container=0;" parent="83" vertex="1">
                    <mxGeometry x="90" y="60" width="120" height="60" as="geometry"/>
                </mxCell>
                <mxCell id="17" value="Name" style="ellipse;whiteSpace=wrap;html=1;fontFamily=Helvetica;fontSize=11;fontColor=default;labelBackgroundColor=default;container=0;" parent="83" vertex="1">
                    <mxGeometry x="250" y="160" width="120" height="80" as="geometry"/>
                </mxCell>
                <mxCell id="18" value="Age" style="ellipse;whiteSpace=wrap;html=1;fontFamily=Helvetica;fontSize=11;fontColor=default;labelBackgroundColor=default;container=0;" parent="83" vertex="1">
                    <mxGeometry x="300" y="80" width="120" height="80" as="geometry"/>
                </mxCell>
                <mxCell id="125" value="M" style="edgeLabel;html=1;align=center;verticalAlign=middle;resizable=0;points=[];fontFamily=Helvetica;fontSize=11;fontColor=default;labelBackgroundColor=default;" parent="83" vertex="1" connectable="0">
                    <mxGeometry x="-330" y="40.0033333333335" as="geometry">
                        <mxPoint x="430" y="-2" as="offset"/>
                    </mxGeometry>
                </mxCell>
                <mxCell id="84" value="Attend" style="rhombus;whiteSpace=wrap;html=1;fontFamily=Helvetica;fontSize=11;fontColor=default;labelBackgroundColor=default;" parent="1" vertex="1">
                    <mxGeometry x="560" y="280" width="80" height="80" as="geometry"/>
                </mxCell>
                <mxCell id="86" style="edgeStyle=none;shape=connector;rounded=1;html=1;strokeColor=default;align=center;verticalAlign=middle;fontFamily=Helvetica;fontSize=11;fontColor=default;labelBackgroundColor=default;endArrow=none;endFill=0;" parent="1" source="5" target="84" edge="1">
                    <mxGeometry relative="1" as="geometry"/>
                </mxCell>
                <mxCell id="116" value="M" style="edgeLabel;html=1;align=center;verticalAlign=middle;resizable=0;points=[];fontFamily=Helvetica;fontSize=11;fontColor=default;labelBackgroundColor=default;" parent="86" vertex="1" connectable="0">
                    <mxGeometry x="-0.4115" y="1" relative="1" as="geometry">
                        <mxPoint x="11" y="13" as="offset"/>
                    </mxGeometry>
                </mxCell>
                <mxCell id="67" style="edgeStyle=none;shape=connector;rounded=1;html=1;strokeColor=default;align=center;verticalAlign=middle;fontFamily=Helvetica;fontSize=11;fontColor=default;labelBackgroundColor=default;endArrow=none;endFill=0;" parent="1" source="4" target="66" edge="1">
                    <mxGeometry relative="1" as="geometry"/>
                </mxCell>
                <mxCell id="92" style="edgeStyle=none;shape=connector;rounded=1;html=1;strokeColor=default;align=center;verticalAlign=middle;fontFamily=Helvetica;fontSize=11;fontColor=default;labelBackgroundColor=default;endArrow=none;endFill=0;" parent="1" source="4" target="84" edge="1">
                    <mxGeometry relative="1" as="geometry"/>
                </mxCell>
                <mxCell id="119" value="M" style="edgeLabel;html=1;align=center;verticalAlign=middle;resizable=0;points=[];fontFamily=Helvetica;fontSize=11;fontColor=default;labelBackgroundColor=default;" parent="92" vertex="1" connectable="0">
                    <mxGeometry y="-1" relative="1" as="geometry">
                        <mxPoint x="11" y="-35" as="offset"/>
                    </mxGeometry>
                </mxCell>
                <mxCell id="111" style="edgeStyle=none;shape=connector;rounded=1;html=1;strokeColor=default;align=center;verticalAlign=middle;fontFamily=Helvetica;fontSize=11;fontColor=default;labelBackgroundColor=default;endArrow=none;endFill=0;" parent="1" source="4" target="110" edge="1">
                    <mxGeometry relative="1" as="geometry"/>
                </mxCell>
                <mxCell id="4" value="Shared Experiences" style="rounded=0;whiteSpace=wrap;html=1;container=0;" parent="1" vertex="1">
                    <mxGeometry x="540" y="100" width="120" height="60" as="geometry"/>
                </mxCell>
                <mxCell id="93" style="edgeStyle=none;shape=connector;rounded=1;html=1;strokeColor=default;align=center;verticalAlign=middle;fontFamily=Helvetica;fontSize=11;fontColor=default;labelBackgroundColor=default;endArrow=none;endFill=0;" parent="1" source="48" target="4" edge="1">
                    <mxGeometry relative="1" as="geometry"/>
                </mxCell>
                <mxCell id="48" value="Name" style="ellipse;whiteSpace=wrap;html=1;fontFamily=Helvetica;fontSize=11;fontColor=default;labelBackgroundColor=default;container=0;" parent="1" vertex="1">
                    <mxGeometry x="720" width="120" height="80" as="geometry"/>
                </mxCell>
                <mxCell id="66" value="&lt;u&gt;Shared Experience Id&lt;/u&gt;" style="ellipse;whiteSpace=wrap;html=1;fontFamily=Helvetica;fontSize=11;fontColor=default;labelBackgroundColor=default;container=0;" parent="1" vertex="1">
                    <mxGeometry x="600" y="-40" width="120" height="80" as="geometry"/>
                </mxCell>
                <mxCell id="95" value="Name" style="ellipse;whiteSpace=wrap;html=1;container=0;" parent="1" vertex="1">
                    <mxGeometry x="320" y="580" width="120" height="80" as="geometry"/>
                </mxCell>
                <mxCell id="97" style="edgeStyle=none;html=1;endArrow=none;endFill=0;" parent="1" source="3" target="95" edge="1">
                    <mxGeometry relative="1" as="geometry"/>
                </mxCell>
                <mxCell id="26" style="edgeStyle=none;shape=connector;rounded=1;html=1;entryX=1;entryY=1;entryDx=0;entryDy=0;strokeColor=default;align=center;verticalAlign=middle;fontFamily=Helvetica;fontSize=11;fontColor=default;labelBackgroundColor=default;endArrow=none;endFill=0;" parent="1" source="24" target="25" edge="1">
                    <mxGeometry relative="1" as="geometry"/>
                </mxCell>
                <mxCell id="32" style="edgeStyle=none;shape=connector;rounded=1;html=1;entryX=1;entryY=0.5;entryDx=0;entryDy=0;strokeColor=default;align=center;verticalAlign=middle;fontFamily=Helvetica;fontSize=11;fontColor=default;labelBackgroundColor=default;endArrow=none;endFill=0;" parent="1" source="24" target="27" edge="1">
                    <mxGeometry relative="1" as="geometry"/>
                </mxCell>
                <mxCell id="35" style="edgeStyle=none;shape=connector;rounded=1;html=1;entryX=0.5;entryY=1;entryDx=0;entryDy=0;strokeColor=default;align=center;verticalAlign=middle;fontFamily=Helvetica;fontSize=11;fontColor=default;labelBackgroundColor=default;endArrow=none;endFill=0;" parent="1" source="24" target="33" edge="1">
                    <mxGeometry relative="1" as="geometry"/>
                </mxCell>
                <mxCell id="37" style="edgeStyle=none;shape=connector;rounded=1;html=1;entryX=1;entryY=0.5;entryDx=0;entryDy=0;strokeColor=default;align=center;verticalAlign=middle;fontFamily=Helvetica;fontSize=11;fontColor=default;labelBackgroundColor=default;endArrow=none;endFill=0;" parent="1" source="24" target="36" edge="1">
                    <mxGeometry relative="1" as="geometry"/>
                </mxCell>
                <mxCell id="24" value="Experience" style="rounded=0;whiteSpace=wrap;html=1;fontFamily=Helvetica;fontSize=11;fontColor=default;labelBackgroundColor=default;" parent="1" vertex="1">
                    <mxGeometry x="100" y="100" width="120" height="60" as="geometry"/>
                </mxCell>
                <mxCell id="25" value="Price" style="ellipse;whiteSpace=wrap;html=1;fontFamily=Helvetica;fontSize=11;fontColor=default;labelBackgroundColor=default;" parent="1" vertex="1">
                    <mxGeometry x="-50" y="10" width="120" height="80" as="geometry"/>
                </mxCell>
                <mxCell id="27" value="Name" style="ellipse;whiteSpace=wrap;html=1;fontFamily=Helvetica;fontSize=11;fontColor=default;labelBackgroundColor=default;" parent="1" vertex="1">
                    <mxGeometry x="-100" y="90" width="120" height="80" as="geometry"/>
                </mxCell>
                <mxCell id="33" value="Provider Id&amp;nbsp;" style="ellipse;whiteSpace=wrap;html=1;fontFamily=Helvetica;fontSize=11;fontColor=default;labelBackgroundColor=default;dashed=1;" parent="1" vertex="1">
                    <mxGeometry x="60" y="-40" width="120" height="80" as="geometry"/>
                </mxCell>
                <mxCell id="36" value="&lt;u&gt;Experience Id&lt;/u&gt;" style="ellipse;whiteSpace=wrap;html=1;fontFamily=Helvetica;fontSize=11;fontColor=default;labelBackgroundColor=default;" parent="1" vertex="1">
                    <mxGeometry x="-100" y="180" width="120" height="80" as="geometry"/>
                </mxCell>
                <mxCell id="109" style="edgeStyle=none;shape=connector;rounded=1;html=1;strokeColor=default;align=center;verticalAlign=middle;fontFamily=Helvetica;fontSize=11;fontColor=default;labelBackgroundColor=default;endArrow=none;endFill=0;" parent="1" source="108" target="24" edge="1">
                    <mxGeometry relative="1" as="geometry"/>
                </mxCell>
                <mxCell id="108" value="Description" style="ellipse;whiteSpace=wrap;html=1;fontFamily=Helvetica;fontSize=11;fontColor=default;labelBackgroundColor=default;" parent="1" vertex="1">
                    <mxGeometry x="190" y="-40" width="120" height="80" as="geometry"/>
                </mxCell>
                <mxCell id="110" value="Date" style="ellipse;whiteSpace=wrap;html=1;fontFamily=Helvetica;fontSize=11;fontColor=default;labelBackgroundColor=default;container=0;" parent="1" vertex="1">
                    <mxGeometry x="750" y="90" width="120" height="80" as="geometry"/>
                </mxCell>
                <mxCell id="123" style="edgeStyle=none;html=1;exitX=1;exitY=1;exitDx=0;exitDy=0;endArrow=none;endFill=0;" parent="1" source="122" target="5" edge="1">
                    <mxGeometry relative="1" as="geometry"/>
                </mxCell>
                <mxCell id="124" style="edgeStyle=none;html=1;exitX=0;exitY=0;exitDx=0;exitDy=0;endArrow=none;endFill=0;" parent="1" source="122" target="24" edge="1">
                    <mxGeometry relative="1" as="geometry"/>
                </mxCell>
                <mxCell id="126" value="M" style="edgeLabel;html=1;align=center;verticalAlign=middle;resizable=0;points=[];" parent="124" vertex="1" connectable="0">
                    <mxGeometry x="0.7348" y="-1" relative="1" as="geometry">
                        <mxPoint as="offset"/>
                    </mxGeometry>
                </mxCell>
                <mxCell id="122" value="Attend" style="rhombus;whiteSpace=wrap;html=1;fontFamily=Helvetica;fontSize=11;fontColor=default;labelBackgroundColor=default;" parent="1" vertex="1">
                    <mxGeometry x="400" y="300" width="80" height="80" as="geometry"/>
                </mxCell>
                <mxCell id="127" value="Experience Id&amp;nbsp;" style="ellipse;whiteSpace=wrap;html=1;fontFamily=Helvetica;fontSize=11;fontColor=default;labelBackgroundColor=default;dashed=1;" vertex="1" parent="1">
                    <mxGeometry x="-100" y="270" width="120" height="80" as="geometry"/>
                </mxCell>
                <mxCell id="128" value="Provider Id&amp;nbsp;" style="ellipse;whiteSpace=wrap;html=1;fontFamily=Helvetica;fontSize=11;fontColor=default;labelBackgroundColor=default;dashed=1;" vertex="1" parent="1">
                    <mxGeometry x="-100" y="360" width="120" height="80" as="geometry"/>
                </mxCell>
                <mxCell id="7" value="CVR" style="ellipse;whiteSpace=wrap;html=1;container=0;" parent="1" vertex="1">
                    <mxGeometry x="190" y="580" width="120" height="80" as="geometry"/>
                </mxCell>
                <mxCell id="13" style="edgeStyle=none;shape=connector;rounded=1;html=1;entryX=0.5;entryY=0;entryDx=0;entryDy=0;strokeColor=default;align=center;verticalAlign=middle;fontFamily=Helvetica;fontSize=11;fontColor=default;labelBackgroundColor=default;endArrow=none;endFill=0;" parent="1" source="3" target="7" edge="1">
                    <mxGeometry relative="1" as="geometry"/>
                </mxCell>
                <mxCell id="129" value="Shared Experience Id" style="ellipse;whiteSpace=wrap;html=1;fontFamily=Helvetica;fontSize=11;fontColor=default;labelBackgroundColor=default;container=0;dashed=1;" vertex="1" parent="1">
                    <mxGeometry x="750" y="230" width="120" height="80" as="geometry"/>
                </mxCell>
                <mxCell id="130" value="Guest Id" style="ellipse;whiteSpace=wrap;html=1;fontFamily=Helvetica;fontSize=11;fontColor=default;labelBackgroundColor=default;container=0;dashed=1;" vertex="1" parent="1">
                    <mxGeometry x="750" y="330" width="120" height="80" as="geometry"/>
                </mxCell>
                <mxCell id="131" value="Shared Experience Id" style="ellipse;whiteSpace=wrap;html=1;fontFamily=Helvetica;fontSize=11;fontColor=default;labelBackgroundColor=default;container=0;dashed=1;" vertex="1" parent="1">
                    <mxGeometry x="460" y="-40" width="120" height="80" as="geometry"/>
                </mxCell>
                <mxCell id="132" value="Experience Id&amp;nbsp;" style="ellipse;whiteSpace=wrap;html=1;fontFamily=Helvetica;fontSize=11;fontColor=default;labelBackgroundColor=default;dashed=1;" vertex="1" parent="1">
                    <mxGeometry x="330" y="-40" width="120" height="80" as="geometry"/>
                </mxCell>
                <mxCell id="133" style="edgeStyle=none;shape=connector;rounded=1;html=1;strokeColor=default;align=center;verticalAlign=middle;fontFamily=Helvetica;fontSize=11;fontColor=default;labelBackgroundColor=default;endArrow=none;endFill=0;exitX=0.5;exitY=1;exitDx=0;exitDy=0;entryX=0;entryY=0;entryDx=0;entryDy=0;" edge="1" parent="1" source="132" target="71">
                    <mxGeometry relative="1" as="geometry">
                        <mxPoint x="235" y="46" as="sourcePoint"/>
                        <mxPoint x="191" y="110" as="targetPoint"/>
                    </mxGeometry>
                </mxCell>
                <mxCell id="134" style="edgeStyle=none;shape=connector;rounded=1;html=1;strokeColor=default;align=center;verticalAlign=middle;fontFamily=Helvetica;fontSize=11;fontColor=default;labelBackgroundColor=default;endArrow=none;endFill=0;exitX=0.5;exitY=1;exitDx=0;exitDy=0;entryX=1;entryY=0;entryDx=0;entryDy=0;" edge="1" parent="1" source="131" target="71">
                    <mxGeometry relative="1" as="geometry">
                        <mxPoint x="400" y="50" as="sourcePoint"/>
                        <mxPoint x="400" y="120" as="targetPoint"/>
                    </mxGeometry>
                </mxCell>
                <mxCell id="135" style="edgeStyle=none;shape=connector;rounded=1;html=1;strokeColor=default;align=center;verticalAlign=middle;fontFamily=Helvetica;fontSize=11;fontColor=default;labelBackgroundColor=default;endArrow=none;endFill=0;exitX=0;exitY=0.5;exitDx=0;exitDy=0;entryX=1;entryY=0;entryDx=0;entryDy=0;" edge="1" parent="1" source="129" target="84">
                    <mxGeometry relative="1" as="geometry">
                        <mxPoint x="530" y="50" as="sourcePoint"/>
                        <mxPoint x="440" y="120" as="targetPoint"/>
                    </mxGeometry>
                </mxCell>
                <mxCell id="136" style="edgeStyle=none;shape=connector;rounded=1;html=1;strokeColor=default;align=center;verticalAlign=middle;fontFamily=Helvetica;fontSize=11;fontColor=default;labelBackgroundColor=default;endArrow=none;endFill=0;exitX=0;exitY=0.5;exitDx=0;exitDy=0;entryX=1;entryY=1;entryDx=0;entryDy=0;" edge="1" parent="1" source="130" target="84">
                    <mxGeometry relative="1" as="geometry">
                        <mxPoint x="760" y="280" as="sourcePoint"/>
                        <mxPoint x="630" y="310" as="targetPoint"/>
                    </mxGeometry>
                </mxCell>
                <mxCell id="137" style="edgeStyle=none;shape=connector;rounded=1;html=1;strokeColor=default;align=center;verticalAlign=middle;fontFamily=Helvetica;fontSize=11;fontColor=default;labelBackgroundColor=default;endArrow=none;endFill=0;exitX=0;exitY=0;exitDx=0;exitDy=0;entryX=1;entryY=0.5;entryDx=0;entryDy=0;" edge="1" parent="1" source="56" target="127">
                    <mxGeometry relative="1" as="geometry">
                        <mxPoint x="770" y="290" as="sourcePoint"/>
                        <mxPoint x="640" y="320" as="targetPoint"/>
                    </mxGeometry>
                </mxCell>
                <mxCell id="138" style="edgeStyle=none;shape=connector;rounded=1;html=1;strokeColor=default;align=center;verticalAlign=middle;fontFamily=Helvetica;fontSize=11;fontColor=default;labelBackgroundColor=default;endArrow=none;endFill=0;exitX=0;exitY=1;exitDx=0;exitDy=0;entryX=1;entryY=0.5;entryDx=0;entryDy=0;" edge="1" parent="1" source="56" target="128">
                    <mxGeometry relative="1" as="geometry">
                        <mxPoint x="150" y="310" as="sourcePoint"/>
                        <mxPoint x="30" y="320" as="targetPoint"/>
                    </mxGeometry>
                </mxCell>
                <mxCell id="139" value="Experience Id&amp;nbsp;" style="ellipse;whiteSpace=wrap;html=1;fontFamily=Helvetica;fontSize=11;fontColor=default;labelBackgroundColor=default;dashed=1;" vertex="1" parent="1">
                    <mxGeometry x="300" y="410" width="120" height="80" as="geometry"/>
                </mxCell>
                <mxCell id="140" value="Guest Id" style="ellipse;whiteSpace=wrap;html=1;fontFamily=Helvetica;fontSize=11;fontColor=default;labelBackgroundColor=default;container=0;dashed=1;" vertex="1" parent="1">
                    <mxGeometry x="250" y="320" width="120" height="80" as="geometry"/>
                </mxCell>
                <mxCell id="141" style="edgeStyle=none;shape=connector;rounded=1;html=1;strokeColor=default;align=center;verticalAlign=middle;fontFamily=Helvetica;fontSize=11;fontColor=default;labelBackgroundColor=default;endArrow=none;endFill=0;exitX=0.078;exitY=0.605;exitDx=0;exitDy=0;entryX=1;entryY=0.5;entryDx=0;entryDy=0;exitPerimeter=0;" edge="1" parent="1" source="122" target="140">
                    <mxGeometry relative="1" as="geometry">
                        <mxPoint x="150" y="350" as="sourcePoint"/>
                        <mxPoint x="30" y="410" as="targetPoint"/>
                    </mxGeometry>
                </mxCell>
                <mxCell id="142" style="edgeStyle=none;shape=connector;rounded=1;html=1;strokeColor=default;align=center;verticalAlign=middle;fontFamily=Helvetica;fontSize=11;fontColor=default;labelBackgroundColor=default;endArrow=none;endFill=0;exitX=0.363;exitY=0.894;exitDx=0;exitDy=0;exitPerimeter=0;" edge="1" parent="1" source="122" target="139">
                    <mxGeometry relative="1" as="geometry">
                        <mxPoint x="410" y="350" as="sourcePoint"/>
                        <mxPoint x="370" y="360" as="targetPoint"/>
                    </mxGeometry>
                </mxCell>
                <mxCell id="146" value="" style="edgeStyle=none;shape=connector;rounded=1;html=1;entryX=0.5;entryY=1;entryDx=0;entryDy=0;strokeColor=default;align=center;verticalAlign=middle;fontFamily=Helvetica;fontSize=11;fontColor=default;labelBackgroundColor=default;endArrow=none;endFill=0;" edge="1" parent="1" source="56" target="143">
                    <mxGeometry relative="1" as="geometry">
                        <mxPoint x="160" y="280" as="sourcePoint"/>
                        <mxPoint x="160" y="160" as="targetPoint"/>
                    </mxGeometry>
                </mxCell>
                <mxCell id="143" value="M" style="ellipse;" vertex="1" parent="1">
                    <mxGeometry x="150" y="170" width="20" height="20" as="geometry"/>
                </mxCell>
            </root>
        </mxGraphModel>
    </diagram>
</mxfile>